<svg xmlns="http://www.w3.org/2000/svg" version="1.1" xmlns:xlink="http://www.w3.org/1999/xlink" xmlns:svgjs="http://svgjs.com/svgjs" width="512" height="512" x="0" y="0" viewBox="0 0 64 64" style="enable-background:new 0 0 512 512" xml:space="preserve" class=""><g><path d="M23.152 48.776a3.075 3.075 0 0 1-3.917.79 2.34 2.34 0 0 1-1.083-2.985c2.332-4.62 5.574-10.024 7.86-13.682 1.155-1.848 1.563-2.183.279-3.873-1.069-1.406-2.487-3.132-3.397-4.233-1.58-1.912-3.86-4.548-4.464-5.962a3.497 3.497 0 0 1 1.194-3.972c1.23-.903 2.37-.598 3.77.79.907.9 6.21 7.646 6.941 8.604.882 1.156 1.104 1.126 2.037-.166.948-1.313 4.723-6.146 5.695-7.441 1.745-2.328 3.736-3.28 4.988-2.078a2.855 2.855 0 0 1 .49 4.017c-1.73 2.72-3.857 5.185-5.779 7.769a18.48 18.48 0 0 0-1.475 2.033c-.953 1.704-1.056 1.778-.06 3.486.69 1.187 1.949 2.82 2.67 3.847 1.993 2.836 4.154 5.948 6.362 8.611 1.889 2.278-.012 4.15-1.08 4.7a2.84 2.84 0 0 1-3.852-.962c-1.293-1.715-2.353-3.623-3.556-5.403-.982-1.453-2.186-3.64-3.234-5.057-1.594-2.156-1.897-2.947-2.581-1.732-2.37 4.213-6.512 11.147-7.808 12.899z" fill="#ff4c4c" data-original="#000000" class="" opacity="1"></path></g></svg>